<?xml version="1.0" encoding="utf-8"?>
<!-- Generator: Adobe Illustrator 26.0.1, SVG Export Plug-In . SVG Version: 6.00 Build 0)  -->
<svg version="1.1" id="Layer_1" xmlns="http://www.w3.org/2000/svg" xmlns:xlink="http://www.w3.org/1999/xlink" x="0px" y="0px"
	 viewBox="0 0 1920 1250" style="enable-background:new 0 0 1920 1250;" xml:space="preserve">
<style type="text/css">
	.st0{fill:#3c6d79;}
</style>
<g>
	<path class="st0" d="M1920,0v388c0,0,0,0-15-3s0,0-6,0s0,0-30,0s0,0-20-4s0,0-34,0s0,0-14,3s0,0-19,11s-9,0-9,0l-18,3c0,0,0,0-49-2
		s0,0-30-8s0,0-11,0s0,0-12-5s0,0-39.57-0.73C1573.86,381.54,1589,378,1589,378s0,0-28-9s0,0-19,2s0,0-30-6s0,0-29,0s0,0-27-4
		s0,0-20-5s0,0-13-2s-17-3-17-3l-24,1l-13-3c0,0,0,0-26-5s-17-3-17-3h-41c0,0,0,0-20-2s-27-11-27-11l-15-6h-20l-24-11c0,0,0,0-7,1
		s-1-6-20,0s-11.43,0-11.43,0H1125c0,0,0,0-26,10s0,0-18,3s0,0-19,4s0,0-15.71,1.89C1030.57,332.78,1031,342,1031,342l-36,12
		c0,0,0,0-16,8s0,0-36-8s0,0-20,5s0,0-25,3s-15,6-15,6l-27,7c0,0,0,0-24,9s-33,0-33,0s0,0-16,0s-27-3-27-3s-10,10-28,24s0,0-33,1
		s-22-4-22-4l-25.29-9.06L629,385l-27-3l-23-6l-30-2l-18-5l-25-1h-11l-19-3l-24-4l-23-7h-34c0,0,0,0-30.14-16
		c-30.15-16-17.15,0-17.15,0H336l-16.86,20H305l-33,7l-38.57,24H223l-18.14,10H183l-19.57,9H145c0,0,0,0-20,0s-14.43,14-14.43,14H93
		l-21,9H43c0,0,0,0-21,4S0,455,0,455V0H1920z"/>
</g>
<path class="st0" d="M1920,0v388c0,0,0,0-15-3s0,0-6,0s0,0-30,0s0,0-20-4s0,0-34,0s0,0-14,3s0,0-19,11s-9,0-9,0l-18,3c0,0,0,0-49-2
	s0,0-30-8s0,0-11,0s0,0-12-5s0,0-39.57-0.73C1573.86,381.54,1589,378,1589,378s0,0-28-9s0,0-19,2s0,0-30-6s0,0-29,0s0,0-27-4
	s0,0-20-5s0,0-13-2s-17-3-17-3l-24,1l-13-3c0,0,0,0-26-5s-17-3-17-3h-41c0,0,0,0-20-2s-27-11-27-11l-15-6h-20l-24-11c0,0,0,0-7,1
	s-1-6-20,0s-11.43,0-11.43,0H1125c0,0,0,0-26,10s0,0-18,3s0,0-19,4s0,0-15.71,1.89C1030.57,332.78,1031,342,1031,342l-36,12
	c0,0,0,0-16,8s0,0-36-8s0,0-20,5s0,0-25,3s-15,6-15,6l-27,7c0,0,0,0-24,9s-33,0-33,0s0,0-16,0s-27-3-27-3s-10,10-28,24s0,0-33,1
	s-22-4-22-4l-25.29-9.06L629,385l-27-3l-23-6l-30-2l-18-5l-25-1h-11l-19-3l-24-4l-23-7h-34c0,0,0,0-30.14-16
	c-30.15-16-17.15,0-17.15,0H336l-16.86,20H305l-33,7l-38.57,24H223l-18.14,10H183l-19.57,9H145c0,0,0,0-20,0s-14.43,14-14.43,14H93
	l-21,9H43c0,0,0,0-21,4S0,455,0,455V0H1920z"/>
</svg>
